<svg width="39" height="31" viewBox="0 0 39 31" fill="none" xmlns="http://www.w3.org/2000/svg">
<path d="M19.0716 11.45L23.2089 15.5M23.2089 15.5L27.3462 19.55M23.2089 15.5L27.3462 11.45M23.2089 15.5L19.0716 19.55M14.3274 28.406L2.60499 16.931C2.21759 16.5513 2 16.0366 2 15.5C2 14.9634 2.21759 14.4487 2.60499 14.069L14.3274 2.594C14.7154 2.2142 15.2432 2 15.7911 2H32.8627C33.96 2 35.0123 2.4267 35.7882 3.18622C36.5641 3.94574 37 4.97587 37 6.05V24.95C37 26.0241 36.5641 27.0543 35.7882 27.8138C35.0123 28.5733 33.96 29 32.8627 29H15.7911C15.2432 29 14.7154 28.7858 14.3274 28.406Z" stroke="white" stroke-width="3" stroke-linecap="round" stroke-linejoin="round"/>
</svg>
